<svg width="22" height="33" viewBox="0 0 22 33" xmlns="http://www.w3.org/2000/svg"><title>mobile</title><g id="Page-1" fill="none" fill-rule="evenodd"><g id="Desktop-HD" fill-opacity=".6" fill="#FFF"><g id="Page-1"><g id="Group-7"><path d="M17.612 29.584H3.604c-.384 0-.662-.304-.662-.761v-5.51h15.332v5.51c0 .457-.278.76-.662.76zM3.604 2.942h14.008c.384 0 .662.29.662.654v17.396H2.942V3.596c0-.364.278-.654.662-.654zm17.613.697A3.64 3.64 0 0 0 17.577 0H3.64A3.64 3.64 0 0 0 0 3.64v25.242a3.64 3.64 0 0 0 3.64 3.64h13.938a3.64 3.64 0 0 0 3.64-3.64V3.64zM10.837 25h-.175C9.744 25 9 25.783 9 26.75s.744 1.75 1.662 1.75h.175c.919 0 1.663-.783 1.663-1.75S11.756 25 10.837 25" id="mobile"/></g></g></g></g></svg>