<svg width="27" height="30" viewBox="0 0 27 30" xmlns="http://www.w3.org/2000/svg"><title>business</title><g id="Page-1" fill="none" fill-rule="evenodd"><g id="Desktop-HD" fill="#FFF"><path d="M24.668 21.464a1.478 1.478 0 0 1-2.016.54 1.477 1.477 0 1 1 2.016-.54m-9.73 5.002c0 .814-.663 1.476-1.477 1.476a1.478 1.478 0 0 1-1.476-1.476c0-.815.662-1.477 1.476-1.477s1.476.662 1.476 1.477m-9.985-5.347c-.102.38-.347.699-.688.896-.341.197-.739.25-1.12.147a1.477 1.477 0 0 1-.356-2.704 1.477 1.477 0 0 1 2.164 1.66m-.154-11.112a1.478 1.478 0 0 1-2.016.54 1.477 1.477 0 0 1 .74-2.753 1.478 1.478 0 0 1 1.276 2.214m17.16-1.131c.102-.381.347-.7.688-.896a1.466 1.466 0 0 1 1.12-.148c.38.102.699.346.896.688.197.341.25.739.148 1.12a1.478 1.478 0 0 1-2.851-.764m3.19 8.805a3.523 3.523 0 0 0-4.045.373l-5.211-3.009c0-.031-.003-.062-.005-.093l5.22-3.014c.64.542 1.454.836 2.282.836.596 0 1.2-.152 1.752-.47a3.494 3.494 0 0 0 1.639-2.136 3.495 3.495 0 0 0-.352-2.669 3.494 3.494 0 0 0-2.135-1.638 3.495 3.495 0 0 0-2.668.351 3.494 3.494 0 0 0-1.639 2.136A3.498 3.498 0 0 0 19.93 9.9L14.57 12.95c-.01 0-.037-.002-.097-.002V6.84c1.413-.486 2.415-1.787 2.415-3.312 0-1.94-1.539-3.517-3.478-3.517-1.94 0-3.576 1.578-3.576 3.517 0 1.528 1.029 2.83 2.285 3.315v6.113L6.9 9.91c.257-1.42-.322-2.878-1.642-3.663h.01c-1.68-.942-3.83-.405-4.8 1.275a3.514 3.514 0 0 0 1.29 4.797 3.495 3.495 0 0 0 1.754.467c.832 0 1.65-.297 2.292-.845l5.295 3.056-5.298 3.059a3.522 3.522 0 0 0-4.034-.366A3.52 3.52 0 0 0 .48 22.495a3.494 3.494 0 0 0 2.135 1.639 3.496 3.496 0 0 0 2.668-.351 3.494 3.494 0 0 0 1.64-2.136 3.5 3.5 0 0 0 .057-1.553l5.174-3.032c.014.009-.036.017-.036.026v6.067c-1.256.487-2.253 1.787-2.253 3.31 0 1.94 1.617 3.518 3.556 3.518 1.94 0 3.458-1.578 3.458-3.517 0-1.53-.994-2.834-2.407-3.317v-5.995c.157-.019.147-.04.18-.06l5.239 3.001a3.536 3.536 0 0 0 3.482 4.147c1.216 0 2.406-.63 3.057-1.758a3.52 3.52 0 0 0-1.283-4.803" id="business"/></g></g></svg>