<svg width="33" height="25" viewBox="0 0 33 25" xmlns="http://www.w3.org/2000/svg"><title>designeux</title><g id="Page-1" fill="none" fill-rule="evenodd"><g id="Desktop-HD" fill="#FFF"><g id="Page-1"><path d="M32.73 11.759c-.064-.117-1.577-2.904-4.298-5.717C24.749 2.237 20.602.225 16.436.225S8.122 2.237 4.44 6.042C1.718 8.855.206 11.642.142 11.759c-.134.251-.17.529-.121.789-.05.26-.013.537.121.788.064.117 1.576 2.904 4.298 5.717 3.682 3.805 7.83 5.817 11.996 5.817 4.165 0 8.313-2.012 11.996-5.817 2.721-2.813 4.234-5.6 4.297-5.717.135-.25.17-.529.121-.788a1.19 1.19 0 0 0-.12-.789zm-16.294 10.72c-7.641 0-12.922-8.145-13.989-9.932 1.063-1.789 6.327-9.93 13.989-9.93 7.64 0 12.922 8.143 13.988 9.93-1.067 1.79-6.348 9.931-13.988 9.931zm1.874-10.03c0-.573.465-1.196 1.039-1.196h2.537c-.498-2.39-2.751-4.38-5.457-4.38-3.071 0-5.56 2.547-5.56 5.618 0 3.07 2.489 5.633 5.56 5.633 2.726 0 4.992-2.088 5.467-4.48h-2.547c-.574 0-1.039-.622-1.039-1.195z" id="designeux"/></g></g></g></svg>