<svg width="28" height="29" viewBox="0 0 28 29" xmlns="http://www.w3.org/2000/svg"><title>front-end</title><g id="Page-1" fill="none" fill-rule="evenodd"><g id="Desktop-HD" fill="#FFF"><g id="Page-1"><path d="M13.481 2.728a1.364 1.364 0 0 0 0-2.728H1.605C1.208 0 .77.09.522.361.25.611 0 .887 0 1.284V13.16a1.364 1.364 0 0 0 2.728 0V2.728h10.753zm13.155 10.747c-.754 0-1.364.611-1.364 1.365v10.753H14.84a1.364 1.364 0 0 0 0 2.728h11.876c.397 0 .673-.251.923-.522.27-.25.361-.686.361-1.083V14.84c0-.754-.61-1.365-1.364-1.365zm-13.92 6.303a1.204 1.204 0 0 0 2.407 0v-3.35l3.123 1.756c.19.11.437.162.641.162.416 0 .84-.216 1.064-.602a1.2 1.2 0 0 0-.431-1.645l-2.982-1.724 2.99-1.725a1.204 1.204 0 0 0 .441-1.644c-.332-.576-1.148-.773-1.723-.44l-3.123 1.756V8.864a1.204 1.204 0 0 0-2.407 0v3.394l-2.851-1.693c-.576-.332-1.272-.135-1.604.441-.332.576-.115 1.312.46 1.644l2.997 1.725-2.981 1.724a1.205 1.205 0 1 0 .607 2.246c.204 0 .33-.051.52-.16l2.852-1.693v3.286z" id="front-end"/></g></g></g></svg>