<svg width="25" height="29" viewBox="0 0 25 29" xmlns="http://www.w3.org/2000/svg"><title>programacao</title><g id="Page-1" fill="none" fill-rule="evenodd"><g id="Desktop-HD" fill="#FFF"><g id="Page-1"><path d="M13.656 14.19l-5.16-5.158a1.548 1.548 0 1 0-2.188 2.19l4.205 4.204-4.205 4.205a1.548 1.548 0 1 0 2.189 2.19l5.159-5.16c.338-.338.487-.793.446-1.235a1.544 1.544 0 0 0-.446-1.235zm9.661 5.363h-7.495a1.548 1.548 0 1 0 0 3.096h7.495a1.548 1.548 0 1 0 0-3.096zm.081 6.355H3.381c-.265 0-.448-.212-.448-.477V3.48c0-.265.183-.546.448-.546h20.017a1.466 1.466 0 1 0 0-2.933H3.381C1.494 0 0 1.592 0 3.479V25.43c0 1.887 1.494 3.41 3.38 3.41h20.018a1.466 1.466 0 1 0 0-2.933z" id="programacao"/></g></g></g></svg>