<svg width="30" height="30" viewBox="0 0 30 30" xmlns="http://www.w3.org/2000/svg"><title>infraestrutura</title><g id="Page-1" fill="none" fill-rule="evenodd"><g id="Desktop-HD" fill="#FFF"><g id="Page-1"><path d="M15.01 25.042c-5.509 0-9.991-4.483-9.991-9.992 0-5.51 4.482-9.992 9.992-9.992 5.51 0 9.991 4.483 9.991 9.992 0 5.51-4.482 9.992-9.991 9.992m14.665-12.095l-2.477-.46a12.382 12.382 0 0 0-1.753-4.263l1.466-2.11a.401.401 0 0 0 .004-.566L24.51 3.14a.4.4 0 0 0-.564 0l-2.11 1.456a12.422 12.422 0 0 0-4.262-1.772l-.46-2.47c0-.22-.18-.354-.4-.354h-3.406c-.22 0-.4.134-.4.354l-.461 2.493a12.393 12.393 0 0 0-4.263 1.76l-2.11-1.461a.401.401 0 0 0-.566-.003L3.1 5.549a.4.4 0 0 0 0 .565l1.457 2.11a12.418 12.418 0 0 0-1.772 4.262l-2.45.462c-.22 0-.335.18-.335.4v3.405c0 .22.115.4.335.4l2.482.461a12.391 12.391 0 0 0 1.756 4.262L3.11 23.987a.4.4 0 0 0-.005.565l2.407 2.409a.4.4 0 0 0 .564 0l2.11-1.457a12.414 12.414 0 0 0 4.262 1.772l.461 2.42c0 .22.18.304.4.304h3.406c.22 0 .4-.084.4-.304l.46-2.468a12.377 12.377 0 0 0 4.263-1.748l2.11 1.469c.156.155.41.16.566.006l2.408-2.406a.4.4 0 0 0 0-.563l-1.456-2.11a12.418 12.418 0 0 0 1.772-4.262l2.44-.462c.219 0 .323-.18.323-.4v-3.405c0-.22-.104-.4-.324-.4zM15.011 10.52a4.536 4.536 0 0 0-4.53 4.53 4.536 4.536 0 0 0 4.53 4.53 4.535 4.535 0 0 0 4.53-4.53 4.535 4.535 0 0 0-4.53-4.53zm0 6.56c-1.12 0-2.03-.91-2.03-2.03 0-1.12.91-2.03 2.03-2.03 1.12 0 2.03.91 2.03 2.03 0 1.12-.91 2.03-2.03 2.03z" id="infraestrutura"/></g></g></g></svg>