<svg version="1" xmlns="http://www.w3.org/2000/svg" viewBox="0 0 50 50"><path d="M41.866 16.777l-.09-.405h-1.465c-.57 0-1.016.453-1.057 1.02-.008.12-.028.233-.04.35l2.653-.965zm-23 .433l-5.998 10.12 7.62-2.772 1.986-3.353.35.387a2.77 2.77 0 0 0 4.11 0l.346-.384.428.722 4.916-1.79-1.735-2.927.96-1.063c.37-.41.575-.945.575-1.498V9.126a2.918 2.918 0 0 0-2.918-2.918h-1.574V2.16c0-.584-.475-1.06-1.06-1.06h-3.99a1.06 1.06 0 0 0-1.06 1.06v4.047h-1.575a2.917 2.917 0 0 0-2.918 2.918v5.525c0 .554.205 1.087.577 1.498l.96 1.06z" fill="#46B8B0"/><path fill="#4ECDC4" d="M18.55 16.86l13.877-5.05V9.125a2.918 2.918 0 0 0-2.918-2.918h-1.575V2.16a1.06 1.06 0 0 0-1.06-1.06h-3.99a1.06 1.06 0 0 0-1.06 1.06v4.047h-1.573a2.917 2.917 0 0 0-2.918 2.918v5.525c0 .554.205 1.087.576 1.498l.64.712z"/><g fill="#444"><path d="M46.762 44.907c-.56 0-1.014.454-1.014 1.014v1.62l-2.645-1.83-6.577-11.098c.884-.548 1.73-1.16 2.53-1.835l3.38 5.705a1.015 1.015 0 0 0 1.746-1.035l-4.27-7.206a20.004 20.004 0 0 0 4.36-7.053 1.014 1.014 0 1 0-1.911-.684c-1.318 3.68-3.79 6.814-7.146 9.065a17.245 17.245 0 0 1-6.116 2.553c-4.502.914-9.096.18-12.94-2.065l-.87-.51L6.896 45.71l-2.645 1.83v-3.473l15.99-26.984-1.458-1.614a1.225 1.225 0 0 1-.315-.82V9.126c0-1.05.853-1.904 1.903-1.904h2.588l.046-5.105 4.036.045v5.06h2.588c1.05 0 1.904.854 1.904 1.904v5.525c0 .304-.112.595-.315.82l-1.462 1.616 6.067 10.238.922-1.067a15.011 15.011 0 0 0 3.64-8.79c.003-.043.025-.08.046-.08h1.465a1.014 1.014 0 0 0 0-2.028h-1.465c-1.1 0-1.988.843-2.07 1.962a12.972 12.972 0 0 1-2.27 6.472l-3.826-6.455.46-.51c.54-.598.837-1.372.837-2.178V9.126a3.936 3.936 0 0 0-3.932-3.933h-.56v-3.03c0-1.145-.93-2.075-2.074-2.075h-3.99c-1.145 0-2.075.93-2.075 2.074v3.03h-.56a3.938 3.938 0 0 0-3.932 3.934v5.525c0 .807.298 1.58.84 2.18l.455.505L2.223 43.51v4.748a1.651 1.651 0 0 0 2.592 1.358l3.6-2.492L16.02 34.29c4.085 2.113 8.832 2.76 13.483 1.817 1.587-.322 3.15-.86 4.617-1.58l7.464 12.597 3.6 2.492a1.64 1.64 0 0 0 1.707.106c.547-.285.887-.846.887-1.464V45.92c0-.56-.454-1.013-1.015-1.013z"/><path d="M26.304 20.912c-.674.747-1.93.746-2.604 0l-1.273-1.41-5.607 9.462.885.514a15.117 15.117 0 0 0 14.7.255l.934-.5-5.766-9.728-1.27 1.407zm-6.674 7.29l3.187-5.378c1.267.895 3.1.896 4.367.002l3.306 5.58c-3.425 1.486-7.5 1.407-10.86-.204z"/></g></svg>