<svg version="1" xmlns="http://www.w3.org/2000/svg" viewBox="0 0 50 50"><path fill="#00C8E2" d="M34.332 30.57l5.45-20.343a4.272 4.272 0 0 0-3.022-5.235l-11.904-3.19a4.275 4.275 0 0 0-5.235 3.023l-9.233 34.46 23.945-8.716z"/><path fill="#00DFFC" d="M39.61 7.817a4.261 4.261 0 0 0-2.956-2.825L24.75 1.802a4.275 4.275 0 0 0-5.235 3.022l-3.06 11.42L39.61 7.818z"/><path fill="#444" d="M25.145 49.414c-.092 0-.185-.012-.277-.037l-11.904-3.19a5.298 5.298 0 0 1-3.245-2.49 5.3 5.3 0 0 1-.535-4.053L18.59 4.548a5.302 5.302 0 0 1 2.49-3.244A5.325 5.325 0 0 1 25.134.77l11.904 3.19a5.313 5.313 0 0 1 3.244 2.49 5.31 5.31 0 0 1 .534 4.055l-5.45 20.34a1.07 1.07 0 0 1-2.065-.553l5.45-20.34a3.17 3.17 0 0 0-.32-2.432 3.191 3.191 0 0 0-1.946-1.494L24.58 2.836a3.183 3.183 0 0 0-2.432.32 3.193 3.193 0 0 0-1.494 1.947L11.25 40.198a3.184 3.184 0 0 0 .32 2.433 3.184 3.184 0 0 0 1.947 1.495l11.904 3.19a1.067 1.067 0 0 1-.275 2.099z"/><path fill="#444" d="M19.09 29.593a1.569 1.569 0 1 1-.405 3.083 1.56 1.56 0 0 1-.952-.73 1.57 1.57 0 0 1 1.356-2.353m0-1.71a3.279 3.279 0 1 0 .002 6.556 3.28 3.28 0 1 0-.003-6.557zm1.918-5.447a1.57 1.57 0 0 1 1.516 1.974 1.57 1.57 0 0 1-1.919 1.108 1.566 1.566 0 0 1-1.108-1.92 1.57 1.57 0 0 1 1.513-1.162m0-1.71a3.279 3.279 0 1 0 .002 6.556 3.279 3.279 0 1 0-.004-6.556zm1.915-5.446a1.568 1.568 0 1 1 .003 3.135 1.568 1.568 0 0 1-.002-3.134m0-1.71a3.278 3.278 0 1 0 .003 6.555c1.447 0 2.77-.966 3.164-2.43a3.276 3.276 0 0 0-3.166-4.124zM30.907 17.418a1.569 1.569 0 1 1-.403 3.083 1.561 1.561 0 0 1-1.108-1.918 1.57 1.57 0 0 1 1.513-1.164m0-1.71a3.279 3.279 0 1 0 .003 6.556 3.279 3.279 0 1 0-.003-6.556zm-1.919 8.866c.135 0 .272.018.407.054a1.561 1.561 0 0 1 1.108 1.918l-1.918 7.157a1.568 1.568 0 0 1-3.03-.812l1.92-7.156a1.568 1.568 0 0 1 1.51-1.162m0-1.71a3.28 3.28 0 0 0-3.163 2.43l-1.918 7.157a3.279 3.279 0 0 0 6.332 1.696l1.917-7.157a3.278 3.278 0 0 0-3.167-4.125zM31.578 7.955l-3.716-.996a.785.785 0 0 1 .406-1.515l3.716.996a.785.785 0 0 1-.406 1.515z"/></svg>