<svg version="1" xmlns="http://www.w3.org/2000/svg" viewBox="0 0 50 50"><path fill="#E589EF" d="M41.555 25.873V3.22a1.96 1.96 0 0 0-1.96-1.96H10.406a1.962 1.962 0 0 0-1.962 1.96v34.704l33.11-12.05z"/><path fill="#F799FF" d="M41.362 2.387a1.957 1.957 0 0 0-1.77-1.127H10.408a1.962 1.962 0 0 0-1.962 1.96v11.15L41.363 2.39z"/><g fill="#444"><path d="M39.593.034H10.407A3.191 3.191 0 0 0 7.22 3.222V46.78a3.19 3.19 0 0 0 3.187 3.187h23.177a1.227 1.227 0 0 0 0-2.451H10.407a.736.736 0 0 1-.735-.735v-5.034h27.76a1.227 1.227 0 1 0 0-2.452H9.67v-5.77h30.66v2.885a1.227 1.227 0 0 0 2.452-.001V3.22A3.19 3.19 0 0 0 39.595.034zm.736 31.036H9.67V25.3h30.66v5.77zM9.67 22.847V3.22c0-.404.33-.734.736-.734h29.187c.405 0 .735.33.735.735v19.627H9.67z"/><path d="M13.717 29.166H25a.98.98 0 0 0 0-1.962H13.717a.98.98 0 0 0 0 1.962zm0 6.26a.98.98 0 0 0 0 1.962H25a.98.98 0 0 0 0-1.962H13.717zm0 8.222a.98.98 0 0 0 0 1.962H25a.98.98 0 0 0 0-1.962H13.717z"/><circle cx="33.584" cy="28.185" r="1.509"/><circle cx="33.584" cy="36.407" r="1.509"/><circle cx="33.584" cy="44.629" r="1.509"/></g></svg>