<svg version="1" xmlns="http://www.w3.org/2000/svg" viewBox="0 0 50 50"><path fill="#A6C1C2" d="M9.53 15.602l4.368 3.06 6.22 4.36h.002a5.44 5.44 0 0 0-.595 2.47v4.642c0 1.29.458 2.467 1.206 3.402l19.987-7.275 1.077-1.536c.265-.38.47-.777.63-1.183a5.432 5.432 0 0 0-1.96-6.384l-4.368-3.06-12.753-8.924-4.367-3.06a5.414 5.414 0 0 0-6.658.347h-.008c-.33.28-.63.62-.893.992l-1.605 2.29-1.613 2.3a5.435 5.435 0 0 0 1.33 7.56z"/><path fill="#B9D7D9" d="M26.53 7.406l-3.19-2.234-4.368-3.06a5.413 5.413 0 0 0-6.658.348h-.008c-.33.28-.63.62-.893.992l-1.605 2.29-1.613 2.3c-.264.38-.47.778-.628 1.19a5.43 5.43 0 0 0 .54 4.88L26.53 7.406z"/><path fill="#444" d="M41.09 16.263l-3.474-2.433v-.002l-8.014-5.61-10-7a6.5 6.5 0 0 0-7.67.15l-.33.26a6.623 6.623 0 0 0-1.08 1.198L7.303 7.42c-.307.442-.56.922-.752 1.426a6.514 6.514 0 0 0 2.354 7.65l3.473 2.433 6.4 4.483a6.508 6.508 0 0 0-.344 2.08v4.64c0 2.592 1.513 4.83 3.697 5.896v6.475h-5.888c-1.058 0-1.92.86-1.92 1.918v3.62c0 1.057.862 1.917 1.92 1.917h17.504c1.058 0 1.92-.86 1.92-1.918v-3.62a1.921 1.921 0 0 0-1.92-1.917h-1.52a1.092 1.092 0 0 0 0 2.184h1.255v3.087H16.51V44.69h10.26a1.093 1.093 0 0 0 0-2.185h-2.453v-5.808h1.362v2.078a1.092 1.092 0 0 0 2.182 0V36.03a6.592 6.592 0 0 0 3.41-3.97 6.54 6.54 0 0 0 2.86.66 6.502 6.502 0 0 0 3.933-1.32l.34-.27a6.85 6.85 0 0 0 1.07-1.188l3.22-4.594c.303-.437.555-.91.75-1.416a6.51 6.51 0 0 0-2.353-7.67zm-16.095 2.67a6.55 6.55 0 0 0-5.178 2.545l-4.4-3.083 8.194-11.702 4.67 3.267 6.294 4.407-4.716 6.737a6.54 6.54 0 0 0-4.863-2.172zm-14.837-4.225a4.32 4.32 0 0 1-1.825-3.878l3.347 2.344a.87.87 0 0 0 1.216-.214.875.875 0 0 0-.215-1.217L8.856 9.06c.074-.133.15-.264.24-.39L10.2 7.09l3.852 2.696a.87.87 0 0 0 1.216-.214.875.875 0 0 0-.215-1.217l-3.85-2.697 1.102-1.573c.094-.132.19-.254.29-.368l3.828 2.68a.866.866 0 0 0 1.216-.213.875.875 0 0 0-.214-1.217L14.08 2.624a4.314 4.314 0 0 1 4.27.382l3.473 2.432L13.63 17.14l-3.472-2.432zm19.216 15.427c0 2.414-1.964 4.378-4.378 4.378s-4.378-1.964-4.378-4.378v-4.642c0-2.414 1.964-4.378 4.378-4.378s4.378 1.964 4.378 4.378v4.642zm2.263-.383l-.08-.056v-4.203c0-.835-.163-1.632-.45-2.368l5.256-7.507 3.475 2.433a4.326 4.326 0 0 1 1.828 3.89l-3.015-2.112a.875.875 0 0 0-1.001 1.432l3.49 2.445a4.559 4.559 0 0 1-.238.393l-1.107 1.58-3.515-2.462a.874.874 0 1 0-1.002 1.433l3.515 2.46-1.103 1.575c-.092.13-.203.237-.306.355l-3.475-2.434a.874.874 0 0 0-1.003 1.431l3.006 2.105a4.349 4.349 0 0 1-4.276-.388z"/></svg>