<svg width="65" height="66" viewBox="0 0 65 66" xmlns="http://www.w3.org/2000/svg"><title>icon-empresa</title><g id="Page-1" fill="none" fill-rule="evenodd"><g id="Interna---Planos-Copy" fill="#9898A6"><g id="Page-1"><path d="M64.972 43.225c-.08.79-.732 1.421-1.546 1.421h-.081c-.814-.079-1.465-.71-1.465-1.579.082-1.106.082-4.58-1.79-5.212-10.09-3-9.277-8.213-9.114-8.924v-.079c.163-.631.814-1.105 1.546-1.105.814 0 2.767-.08 4.394-.71-1.058-1.185-1.953-3.239-1.627-6.792.407-3.87-.163-6.87-1.465-8.134-.65-.632-1.383-.869-2.441-.711-.488.079-.977-.158-1.302-.553-.163-.158-1.546-1.58-4.557-.474h-.082c-1.302.474-4.231 1.58-4.068 8.53.081 3.869-.489 6.554-1.872 8.212.895.395 2.36.79 4.476.71.813 0 1.546.633 1.546 1.501 0 .79-.651 1.5-1.546 1.5h-.163c-6.022 0-8.056-2.605-8.219-2.921-.325-.474-.325-1.027-.081-1.5.244-.474.65-.711 1.22-.79.163-.08 1.71-.948 1.628-6.634C38.119 9.9 42.838 8.162 44.385 7.61h.08c3.826-1.421 6.267-.079 7.406.79 1.628 0 3.092.553 4.15 1.658 2.604 2.528 2.686 7.108 2.36 10.582-.407 4.186 1.383 5.055 1.628 5.213.57.079.895.473 1.057 1.026.163.553 0 1.106-.406 1.422-1.79 1.816-4.639 2.369-6.51 2.527.57 1.263 2.36 3 6.835 4.343 2.848.79 4.232 3.633 3.987 8.055zM23.797 61.941l-2.035-1.737 1.058-22.902c.326.08.733.08 1.14.08.325 0 .569 0 .895-.08l1.057 22.823-2.115 1.816zm3.824-31.114c-.813 0-1.546.631-1.546 1.5 0 .632-.244 1.185-.732 1.58l-.244.236a2.039 2.039 0 0 1-1.221.395c-1.22 0-2.197-.947-2.197-2.132 0-.79-.651-1.5-1.546-1.5s-1.546.631-1.546 1.5a4.87 4.87 0 0 0 1.139 3.159l-1.14 25.27c0 .474.163.869.489 1.185l3.58 3.159c.326.237.651.395 1.058.395.407 0 .733-.158 1.058-.395l3.662-3.16c.326-.315.488-.71.488-1.184l-1.139-24.954c.895-.869 1.383-2.132 1.383-3.396 0-1.027-.732-1.658-1.546-1.658zm-10.416-.395c.488.632.326 1.58-.407 2.053-.162.158-4.882 3.317-10.66 4.738-3.01.711-3.255 4.423-3.092 6.476v.158c0 1.184.081 3.238.407 3.948.325.79-.082 1.659-.895 1.896-.163.079-.407.079-.57.079-.57 0-1.22-.316-1.383-.948-.57-1.422-.57-4.343-.57-5.054-.325-5.133 1.628-8.608 5.37-9.477 5.29-1.263 9.603-4.264 9.684-4.264.651-.474 1.628-.316 2.116.395zm30.516 13.346c0 .71 0 3.553-.57 5.054-.244.553-.813.948-1.383.948-.163 0-.407 0-.57-.08a1.511 1.511 0 0 1-.895-1.895c.326-.71.407-2.764.326-3.948v-.158c.162-2.132 0-5.765-3.093-6.476-5.777-1.421-10.497-4.58-10.66-4.738-.65-.474-.813-1.421-.407-2.053.489-.632 1.465-.869 2.116-.395.082 0 4.394 3 9.684 4.264 3.824.948 5.777 4.423 5.452 9.477zM14.845 12.585v-.08c.407-8.844 7.487-9.081 8.87-9.002h.082c1.383-.079 8.463.158 8.87 9.003v.079c0 .078.813 7.818-2.93 11.845-1.465 1.58-3.418 2.37-6.022 2.448h-.162c-2.604 0-4.558-.79-6.022-2.448-3.5-4.027-2.686-11.767-2.686-11.845zM23.634 29.8h.325c3.418-.079 6.104-1.185 8.138-3.396 4.476-4.896 3.743-13.267 3.662-14.056C35.27 2.713 28.029.423 23.797.58 19.484.423 12.24 2.792 11.834 12.348c-.08.79-.813 9.16 3.662 14.056 1.953 2.211 4.72 3.317 8.138 3.396z" id="icon-empresa"/></g></g></g></svg>