<svg width="129" height="38" viewBox="0 0 129 38" xmlns="http://www.w3.org/2000/svg"><title>logo-casadocodigo</title><g id="Page-1" fill="none" fill-rule="evenodd"><g id="Desktop-HD"><g id="Footer"><g id="logo-casadocodigo"><path d="M7.356 7.258v24.039h22.456v-6.743h-15.75v-10.49h15.75V7.258H7.355z" id="Shape" fill="#F5F7F8" transform="translate(-.419 -.433)"/><path d="M7.356.557l-6.607 6.7v24.04L7.356 38h22.456v-6.702H7.355V7.258h22.457V.557H7.356z" id="Shape" fill="#9898A6" transform="translate(-.419 -.433)"/><path d="M80.69 17.987a1.957 1.957 0 0 0-.68-.672c-.282-.168-.622-.251-1.022-.251-1.468-.01-2.203 1.027-2.203 3.112 0 .41.04.804.121 1.182.082.38.207.708.38.988.174.282.4.509.681.682.282.172.622.258 1.021.258 1.47.012 2.204-1.026 2.204-3.11 0-.422-.04-.821-.121-1.2a3.127 3.127 0 0 0-.381-.99zM71.692 17.112c-.744 0-1.328.246-1.75.737-.42.491-.631 1.277-.631 2.357 0 .444.035.854.105 1.232.07.379.186.703.348.972.162.27.375.484.64.64.264.156.586.235.964.235.551 0 .988-.142 1.312-.43.324-.286.545-.72.664-1.304v-4.018a1.805 1.805 0 0 0-.664-.324c-.248-.065-.577-.097-.988-.097zM97.497 16.991c-1.67 0-2.399 1.555-2.399 3.03 0 1.718.973 3.013 2.366 3.013 1.362 0 2.383-1.28 2.383-3.046 0-1.328-.664-2.997-2.35-2.997zM47.576 19.786c-.487 0-.978.02-1.475.057-.497.038-.85.197-1.062.477-.21.282-.315.557-.315.827 0 .378.135.688.405.932.27.243.616.364 1.038.364.302 0 .609-.04.922-.121.314-.08.557-.184.73-.308a1.945 1.945 0 0 0 .68-.85v-1.346a15.592 15.592 0 0 0-.924-.031zM61.178 19.786c-.486 0-.978.02-1.474.057-.497.038-.85.197-1.06.477-.212.281-.317.557-.317.827 0 .378.135.688.406.932.27.243.615.364 1.037.364.301 0 .61-.04.923-.121.314-.08.557-.184.73-.308a1.969 1.969 0 0 0 .68-.85v-1.346c-.152-.01-.306-.019-.462-.024a15.693 15.693 0 0 0-.463-.008zM105.599 17.04c-1.475 0-2.35 1.296-2.35 3.013 0 1.588.794 2.9 2.317 2.9.956 0 1.83-.648 2.09-1.7a2.48 2.48 0 0 0 .065-.616v-1.362c0-.178-.016-.42-.065-.6-.21-.89-.988-1.635-2.057-1.635zM125.343 16.991c-1.67 0-2.398 1.555-2.398 3.03 0 1.718.972 3.013 2.365 3.013 1.362 0 2.382-1.28 2.382-3.046 0-1.328-.665-2.997-2.35-2.997zM117.089 17.022c-1.361 0-2.333 1.151-2.333 2.966 0 1.54.794 2.82 2.317 2.82.89 0 1.685-.552 1.977-1.459.08-.242.113-.518.113-.762v-1.409c0-.243-.016-.454-.081-.632-.26-.842-.94-1.524-1.993-1.524z" id="Shape" transform="translate(-.419 -.433)"/><path d="M41.701 23.075a4.936 4.936 0 0 1-1.271.146c-.541 0-1.041-.097-1.5-.291a3.29 3.29 0 0 1-1.199-.875c-.34-.39-.607-.876-.801-1.46-.195-.582-.292-1.263-.292-2.04 0-.865.103-1.594.308-2.188.205-.594.478-1.075.818-1.442a3.02 3.02 0 0 1 1.158-.795c.432-.162.87-.243 1.313-.243.961 0 1.702.123 2.22.373l.697-1.07a8.525 8.525 0 0 0-1.426-.396c-.411-.07-.94-.105-1.589-.105-.605 0-1.199.107-1.781.324a4.364 4.364 0 0 0-1.58 1.028c-.47.47-.849 1.076-1.135 1.815-.286.74-.43 1.64-.43 2.698 0 1.015.13 1.893.39 2.633.259.739.61 1.347 1.053 1.822.443.476.963.83 1.555 1.061a5.222 5.222 0 0 0 1.913.349c.561 0 1.091-.049 1.589-.146.496-.097 1.03-.367 1.604-.81l-.697-.762c-.25.153-.555.277-.917.374zM92.141 22.774a4.935 4.935 0 0 1-1.272.147c-.54 0-1.04-.097-1.498-.292a3.267 3.267 0 0 1-1.199-.876c-.34-.388-.608-.875-.802-1.458-.194-.583-.291-1.264-.291-2.042 0-.864.102-1.593.307-2.187.205-.594.478-1.075.818-1.443.34-.366.726-.632 1.158-.794a3.699 3.699 0 0 1 1.313-.243c.961 0 1.7.124 2.22.373l.697-1.07a8.557 8.557 0 0 0-1.426-.396c-.411-.071-.94-.106-1.588-.106-.606 0-1.2.108-1.783.324a4.38 4.38 0 0 0-1.58 1.03c-.47.47-.848 1.074-1.134 1.814-.286.74-.43 1.64-.43 2.697 0 1.016.13 1.894.39 2.633.26.74.61 1.348 1.053 1.823.443.476.962.83 1.556 1.061a5.22 5.22 0 0 0 1.912.348c.562 0 1.092-.048 1.588-.146.497-.097 1.032-.367 1.605-.81l-.698-.761c-.249.153-.554.277-.916.374zM49.934 23.294a3.155 3.155 0 0 1-.22-1.159c0-.55.017-1.134.05-1.75a35.01 35.01 0 0 0 .048-1.896c0-.291-.03-.583-.09-.875a2.017 2.017 0 0 0-.356-.801c-.178-.243-.437-.441-.777-.591-.34-.152-.792-.227-1.353-.227-.594 0-1.164.059-1.71.177a4.68 4.68 0 0 0-1.433.551l.405.973c.151-.086.326-.165.526-.234.2-.07.411-.13.632-.179a7.06 7.06 0 0 1 .649-.113c.21-.027.407-.04.59-.04.627 0 1.06.118 1.297.356.237.238.356.653.356 1.247a8.8 8.8 0 0 1-.048.875 3.178 3.178 0 0 0-.445-.032h-.446c-.746 0-1.453.04-2.122.122-.67.08-1.19.375-1.556.882-.367.51-.551 1-.551 1.475 0 .356.061.675.186.956.125.281.295.522.51.721.216.2.473.354.77.462.298.108.619.162.964.162s.691-.038 1.037-.113c.346-.075.62-.17.826-.284.205-.114.38-.243.527-.389.145-.146.267-.294.364-.445h.08c.227.755.508 1.133.843 1.133h1.15a2.372 2.372 0 0 1-.703-.964zm-1.435-1.353a1.928 1.928 0 0 1-.68.85c-.173.124-.416.227-.73.308-.313.082-.62.122-.922.122-.422 0-.769-.122-1.038-.365a1.2 1.2 0 0 1-.405-.932c0-.27.105-.545.315-.826.211-.28.565-.44 1.062-.478.497-.038.988-.056 1.475-.056a14.384 14.384 0 0 1 .923.032v1.345zM55.394 20.06a4.07 4.07 0 0 0-.94-.469c-.34-.118-.653-.24-.94-.364a3.167 3.167 0 0 1-.72-.421c-.194-.157-.292-.377-.292-.657 0-.4.111-.68.332-.843.221-.162.57-.243 1.044-.243.4 0 .776.046 1.126.138.352.091.652.198.9.316l.307-1.07a5.657 5.657 0 0 0-1.028-.364c-.395-.103-.883-.154-1.467-.154-.788 0-1.404.181-1.847.542-.443.363-.665.931-.665 1.71 0 .475.097.853.292 1.134.195.28.434.51.721.689.286.178.6.324.94.437.34.114.654.232.94.356.286.125.526.278.72.461.195.184.292.438.292.762 0 .477-.151.805-.454.989-.302.184-.686.275-1.15.275-.411 0-.816-.059-1.216-.178a4.77 4.77 0 0 1-.972-.389l-.389 1.102c.292.162.654.303 1.086.421.432.12.956.179 1.572.179.475 0 .888-.062 1.24-.187.35-.123.645-.293.882-.51a1.97 1.97 0 0 0 .526-.777c.114-.303.17-.627.17-.972 0-.487-.096-.878-.29-1.175a2.568 2.568 0 0 0-.72-.737zM63.536 23.294a3.17 3.17 0 0 1-.219-1.159c0-.55.016-1.134.049-1.75.033-.615.049-1.248.049-1.896 0-.291-.03-.583-.09-.875a2.028 2.028 0 0 0-.356-.801c-.178-.243-.437-.441-.778-.591-.34-.15-.791-.227-1.353-.227-.594 0-1.164.059-1.708.177a4.679 4.679 0 0 0-1.435.551l.405.973c.152-.086.327-.165.527-.234.2-.07.41-.13.632-.179.22-.048.438-.087.648-.113a4.64 4.64 0 0 1 .591-.04c.626 0 1.06.118 1.296.356.238.238.357.653.357 1.247 0 .26-.017.551-.049.875a3.186 3.186 0 0 0-.445-.032h-.446c-.745 0-1.453.04-2.123.122-.67.08-1.188.375-1.555.882-.368.51-.551 1-.551 1.475 0 .356.062.675.186.956a2.15 2.15 0 0 0 1.28 1.183c.297.108.618.162.963.162a4.89 4.89 0 0 0 1.038-.113c.346-.075.621-.17.826-.284.205-.114.381-.243.527-.389.145-.146.267-.294.364-.445h.081c.227.755.509 1.133.843 1.133h1.15a2.378 2.378 0 0 1-.704-.964zm-1.434-1.353a1.934 1.934 0 0 1-.68.85c-.172.124-.415.227-.73.308a3.675 3.675 0 0 1-.923.122c-.421 0-.767-.122-1.036-.365a1.197 1.197 0 0 1-.407-.932c0-.27.106-.545.317-.826.21-.28.563-.44 1.06-.478a19.07 19.07 0 0 1 1.937-.048c.155.005.31.013.461.024v1.345h.001zM74.641 21.44v-8.558h-1.296v3.37a4.974 4.974 0 0 0-.753-.21 5.448 5.448 0 0 0-.948-.065c-1.145 0-2.044.36-2.698 1.077-.654.72-.98 1.77-.98 3.152 0 1.448.262 2.512.786 3.193.524.68 1.326 1.02 2.406 1.02.551 0 1.03-.124 1.442-.372a2.6 2.6 0 0 0 .94-.94h.065l.324 1.15h.875a7.436 7.436 0 0 1-.146-1.32 58.164 58.164 0 0 1-.017-1.498zm-1.296.112c-.12.583-.34 1.018-.664 1.305-.324.286-.761.429-1.312.429-.38 0-.7-.078-.964-.235a1.816 1.816 0 0 1-.64-.64 2.86 2.86 0 0 1-.348-.972 6.718 6.718 0 0 1-.105-1.232c0-1.08.21-1.867.631-2.358.422-.491 1.006-.736 1.75-.736.412 0 .74.032.989.097.248.064.47.173.664.324v4.019zM81.678 17.088a2.878 2.878 0 0 0-1.11-.86c-.448-.2-.974-.299-1.579-.299-1.144 0-2.022.365-2.633 1.094-.61.73-.915 1.78-.915 3.151 0 .638.07 1.218.21 1.742a3.7 3.7 0 0 0 .65 1.345c.291.373.66.658 1.109.859.448.2.975.3 1.579.3 1.145 0 2.022-.365 2.632-1.094.611-.729.917-1.78.917-3.151 0-.638-.071-1.218-.21-1.742a3.726 3.726 0 0 0-.65-1.345zm-2.69 6.198c-.4 0-.74-.087-1.02-.26a2.04 2.04 0 0 1-.681-.68 3.11 3.11 0 0 1-.38-.989 5.61 5.61 0 0 1-.122-1.182c0-2.085.735-3.122 2.203-3.112.4 0 .74.084 1.022.251.281.168.508.392.68.672.173.281.3.61.38.989.08.378.122.777.122 1.199 0 2.085-.735 3.123-2.204 3.112zM99.603 12.697h-1.572l-1.409 2.317h1.005l1.976-2.317z" id="Shape" fill="#9898A6" transform="translate(-.419 -.433)"/><path d="M97.53 15.921c-2.156 0-3.89 1.54-3.89 4.148 0 2.48 1.653 4.034 3.76 4.034 1.879 0 3.904-1.263 3.904-4.164 0-2.381-1.523-4.018-3.774-4.018zm-.066 7.112c-1.393 0-2.366-1.295-2.366-3.013 0-1.475.73-3.03 2.399-3.03 1.686 0 2.35 1.669 2.35 2.997 0 1.767-1.021 3.046-2.383 3.046zM109.13 12.421h-1.41v4.683h-.031c-.357-.616-1.15-1.183-2.366-1.183-1.895 0-3.532 1.588-3.516 4.197 0 2.382 1.475 3.985 3.37 3.985 1.28 0 2.22-.664 2.64-1.539h.05l.065 1.362h1.263a36.885 36.885 0 0 1-.064-2.026v-9.479zm-1.41 8.216c0 .226-.015.421-.064.615-.26 1.053-1.134 1.702-2.09 1.702-1.523 0-2.317-1.313-2.317-2.9 0-1.718.875-3.014 2.35-3.014 1.069 0 1.847.745 2.057 1.636.049.178.065.42.065.6v1.36zM119.34 17.266h-.032c-.356-.649-1.085-1.345-2.447-1.345-1.814 0-3.548 1.491-3.548 4.148 0 2.171 1.394 3.824 3.338 3.824 1.215 0 2.074-.583 2.495-1.313h.032v.86c0 1.992-1.069 2.753-2.527 2.753-.972 0-1.783-.291-2.3-.631l-.358 1.102c.633.42 1.67.648 2.61.648.988 0 2.09-.244 2.868-.94.745-.697 1.117-1.782 1.117-3.597v-4.553c0-.94.016-1.588.065-2.14h-1.264l-.048 1.184zm-.178 3.321c0 .244-.032.52-.113.762a2.056 2.056 0 0 1-1.977 1.458c-1.523 0-2.317-1.28-2.317-2.82 0-1.814.973-2.965 2.333-2.965 1.054 0 1.734.682 1.993 1.524.065.178.081.39.081.632v1.41zM125.375 15.921c-2.155 0-3.888 1.54-3.888 4.148 0 2.48 1.652 4.034 3.759 4.034 1.879 0 3.904-1.263 3.904-4.164 0-2.381-1.523-4.018-3.775-4.018zm-.065 7.112c-1.393 0-2.365-1.295-2.365-3.013 0-1.475.729-3.03 2.398-3.03 1.685 0 2.35 1.669 2.35 2.997-.001 1.767-1.022 3.046-2.383 3.046zM111.26 12.988a.869.869 0 0 0-.891.891c0 .487.34.875.858.875.568 0 .908-.388.908-.875 0-.502-.357-.89-.875-.89z" id="Shape" fill="#9898A6" transform="translate(-.419 -.433)"/><path id="Rectangle-path" fill="#9898A6" d="M110.546 16.083h1.426v7.843h-1.426z" transform="translate(-.419 -.433)"/></g></g></g></g></svg>