<svg width="65" height="28" viewBox="0 0 65 28" xmlns="http://www.w3.org/2000/svg"><title>GUJ Logo</title><g id="Page-1" fill="none" fill-rule="evenodd"><g id="Desktop-HD"><g id="Group"><g id="GUJ-Logo"><path d="M33.34 8.466c.408-.424.997-.636 1.767-.636.483 0 .871.07 1.166.206.294.137.528.311.701.523.173.213.294.452.361.716.068.266.11.535.125.807.014.349.165.591.452.728.286.137.626.205 1.019.205.482 0 .849-.09 1.098-.272.249-.181.374-.56.374-1.136 0-.682-.135-1.291-.406-1.83a4.053 4.053 0 0 0-1.131-1.376 5.127 5.127 0 0 0-1.709-.864 7.5 7.5 0 0 0-2.161-.298c-.725 0-1.4.094-2.027.283a4.498 4.498 0 0 0-1.653.896c-.476.41-.85.943-1.122 1.602-.273.659-.409 1.466-.41 2.42l-.004 6.341c-.001.954.134 1.761.405 2.42.272.66.645 1.194 1.12 1.604a4.47 4.47 0 0 0 1.675.899 7.36 7.36 0 0 0 2.093.285 7.4 7.4 0 0 0 2.083-.282 4.572 4.572 0 0 0 1.699-.896c.483-.409.861-.943 1.134-1.602.272-.659.408-1.465.409-2.42l.002-2.704c0-.258-.079-.481-.237-.671-.159-.19-.39-.284-.69-.285l-3.85-.003c-.301 0-.528.122-.679.364a1.473 1.473 0 0 0-.227.795c0 .303.075.572.226.807.15.235.377.352.679.353l1.834.001-.001 1.341c0 .894-.213 1.553-.635 1.977-.424.424-1.005.635-1.745.635-.754 0-1.335-.213-1.742-.638-.407-.424-.61-1.083-.61-1.977l.005-6.341c0-.894.205-1.553.613-1.977" id="Fill-1" fill="#35495E"/><path d="M52.29 5.46a2.362 2.362 0 0 0-1.007-.216c-.378 0-.717.072-1.019.215-.302.144-.453.375-.453.693l-.008 10.637c-.001.894-.22 1.553-.658 1.977-.438.424-1.05.635-1.834.635-.786-.001-1.397-.213-1.834-.638-.437-.424-.656-1.084-.655-1.978l.008-10.637c0-.318-.154-.549-.464-.693a2.362 2.362 0 0 0-1.007-.217c-.377 0-.717.072-1.018.215-.303.144-.454.375-.454.693l-.008 10.637c0 .954.138 1.761.417 2.42.279.66.663 1.194 1.154 1.604.49.409 1.063.709 1.72.899.656.19 1.369.285 2.139.286.754 0 1.464-.094 2.128-.283a4.662 4.662 0 0 0 1.733-.896c.49-.409.876-.943 1.155-1.602.28-.659.42-1.466.42-2.42l.009-10.637c0-.318-.154-.549-.464-.693" id="Fill-3" fill="#35495E"/><path d="M64.392 5.445a2.364 2.364 0 0 0-1.007-.216c-.377 0-.717.071-1.018.215-.303.144-.454.374-.454.693l-.001 1.454-.007 9.206c0 .895-.209 1.554-.624 1.977-.415.424-1.008.636-1.778.635-.453 0-.83-.072-1.132-.216a1.854 1.854 0 0 1-.712-.57 2.123 2.123 0 0 1-.362-.783 4.876 4.876 0 0 1-.124-.864c-.03-.364-.184-.61-.463-.74-.28-.128-.615-.193-1.008-.193-.498 0-.868.094-1.11.283-.241.19-.362.572-.362 1.148 0 .712.134 1.344.406 1.897a4.264 4.264 0 0 0 1.12 1.422 4.905 4.905 0 0 0 1.708.899 7.347 7.347 0 0 0 2.173.308c.71 0 1.38-.094 2.015-.282a4.484 4.484 0 0 0 1.665-.897c.476-.408.85-.942 1.122-1.601.272-.659.408-1.466.41-2.42l.004-6.844.002-2.363.001-1.454c0-.318-.154-.549-.464-.694" id="Fill-5" fill="#35495E"/><path d="M13.416.146c7.41 0 13.417 6.03 13.417 13.469 0 7.438-6.007 13.468-13.417 13.468S0 21.053 0 13.615C0 6.176 6.007.146 13.416.146" id="Fill-8" fill="#35495E"/><path d="M10.962 6.843s-.188.154-.188.543c0 .39.187.543.187.543s.134.124.216.354c.108.303.074.652-.103 1.036-.656 1.423.016 2.325.463 2.603a.57.57 0 0 0 .792-.187.579.579 0 0 0-.186-.795c-.004-.003-.415-.289-.025-1.136.489-1.061.224-1.919-.115-2.417.34-.498.605-1.355.118-2.417-.389-.847.023-1.133.027-1.136a.579.579 0 0 0-.303-1.069.572.572 0 0 0-.302.087c-.447.277-1.12 1.178-.467 2.602.176.384.21.732.102 1.035a.952.952 0 0 1-.216.354" id="Fill-10" fill="#3B97D3"/><path d="M14.684 10.942a.579.579 0 0 0 .303 1.069.57.57 0 0 0 .302-.086c.447-.278 1.12-1.178.467-2.602-.176-.385-.21-.733-.102-1.036a.95.95 0 0 1 .216-.354s.188-.153.189-.543c0-.389-.188-.543-.188-.543s-.133-.123-.215-.354c-.109-.303-.074-.652.103-1.036.656-1.422-.016-2.324-.463-2.602a.571.571 0 0 0-.792.186.579.579 0 0 0 .186.796c.004.002.415.289.025 1.136-.489 1.06-.225 1.918.115 2.416-.34.498-.607 1.355-.12 2.417.39.848-.022 1.133-.026 1.136" id="Fill-12" fill="#3B97D3"/><path d="M5.087 17.09a.805.805 0 0 1-.803-.808c0-.446.36-.807.804-.806h.482v.075h.002c.007.528.073 1.043.19 1.54l-.675-.002zm3.318-3.473l-2.834-.002h-.463a2.689 2.689 0 0 0-2.685 2.692 2.689 2.689 0 0 0 2.681 2.696h1.414c1.326 2.32 3.91 3.904 6.891 3.935 4.306-.04 7.789-3.316 7.848-7.375h.003l.002-1.936-7.846-.006-5.011-.004z" id="Fill-14" fill="#FFF"/></g></g></g></g></svg>