<svg width="131" height="35" viewBox="0 0 131 35" xmlns="http://www.w3.org/2000/svg"><title>logo-galandra</title><g id="Page-1" fill="none" fill-rule="evenodd"><g id="Desktop-HD" fill="#9898A6"><g id="Footer"><g id="caelum-logo-logo"><path d="M528.8 59.9c-.5 0-.8.6-.8.6-1.7 3.2-3.5 5.4-4.7 5.4-.3 0-.6-.3-.6-.6 0-2.9 2.4-8.6 2.4-9.9 0-.9-2.1-1.3-3.4-1.3 0 0-1.9-2-4.7-2-3.3 0-6.8 6-7.6 10.6-1.2 1.9-2.3 3.1-3.3 3.1-.1 0-.3-.1-.3-.5 0-2 2-8.2 2-9.4 0-1.5-4.5-2.1-4.5-2.7 0-.9.5-1.5.5-2.3 0-.8-2.2-2.2-3.2-2.2-1.4 0-2.7 2.8-2.7 4 0 1.2 1.7 2.4 1.7 2.4s-1.2 2.9-2.4 5.2c-.1.1-.1.2-.1.2-1.8 3.2-3.5 5.3-4.8 5.3-.2 0-.6-.5-.6-.6 0-1.5 1.5-6.6 2.6-10.3 1.5-5.2 1.9-6.5 1.9-7.3 0-.6-2.7-2.2-3.7-2.2-.6 0-.8.2-1 .7l-2 6.8s-1.6-1-3.2-1c-3.1 0-6.1 4.7-7.4 9.1-1.7 3-3.4 4.9-4.5 4.9-.2 0-.3-.2-.3-.4 0-1.9 2.2-8.7 2.2-10.4 0-1.3-2.3-2.9-3.7-2.9-2 0-5.3 1.7-5.3 1.7s-1.6-1.7-2.4-1.7c-.5 0-1.2.2-1.5.7-.4 1.4-1.4 5.3-2.3 8.7-1.5 2.6-3 4.3-4.1 4.3-.3 0-.6-.3-.6-.6 0-2.9 2.4-8.6 2.4-9.9 0-.9-2.1-1.3-3.4-1.3 0 0-1.9-2-4.7-2-3.5 0-7.2 6.7-7.8 11.4-1 1.4-2 2.3-2.8 2.3-.2 0-.6-.2-.6-.4 0-1.7 4.2-15.7 4.5-16.8.1-.3.1-.6.1-.9 0-.6-2.9-2.4-3.7-2.4-.5 0-.9.2-1.1.7-.8 2.4-3 9.9-4.2 14.9-1.6 2.9-3.3 4.9-4.4 4.9-.3 0-.6-.3-.6-.6 0-2.9 2.4-8.6 2.4-9.9 0-.9-2.1-1.3-3.4-1.3 0 0-1.9-2-4.7-2-3.2 0-6.6 5.7-7.6 10.2-1 1.4-2.2 2.3-3.7 3.4 1.5-5.2 2.6-9.7 2.6-10.3 0-.9-2-1.4-3.4-1.4 0 0-1.9-1.9-4.7-1.9-3.4.2-7.6 7.9-7.6 12.6 0 1.9 3 4.3 5 4.3 1.4 0 3-1.5 3-1.5s-.2.7-.8 2.2c-2.4 1.6-3.8 2.4-5.2 3.5-1.1.8-1.5 1.7-1.5 3 0 1.2 2.5 3.5 4.7 3.5 1.4 0 3.5-.5 4.2-1.7.7-1.2 1.9-5 3.1-9 1.6-1 3.2-1.9 4.6-3.3.8 1.7 3.3 3.3 4.7 3.3 1.9 0 4-2.1 4-2.1.5 1 3.2 2.1 4.8 2.1 1.5 0 2.8-1 4-2.6.7 1.4 3.7 2.6 5.4 2.6 1.4 0 2.7-1 3.9-2.4 1.1 1.3 3.1 2.4 4.2 2.4 1.9 0 4-2.1 4-2.1.5 1 3.2 2.1 4.8 2.1 1.2 0 2.3-.7 3.3-1.8.1.9 2.6 1.8 3.4 1.8.6 0 1.2-.4 1.4-.8.2-1 1.8-8.2 2.8-10.6.5-1.1 1.9-1.7 2.6-1.7.4 0 .7.4.7.7 0 1.4-2 7.1-2 9.3 0 1.6 3.6 3.1 5.2 3.1s3.1-1.3 4.4-3.1c.7 1.4 3 3.1 4.8 3.1 1.6 0 4.2-2.2 4.2-2.2.5.7 3 2.2 4.6 2.2 2.5 0 4.6-3.1 6.5-6.6.2-.2.3-.5.3-.5 1.7-3.2 2.7-5.6 2.7-5.6s.8.2.8.4c0 1.8-1.8 6.6-1.8 9.3 0 1.4 3.2 3 5.1 3 1.5 0 2.8-1.1 4.1-2.7 1 1.5 3.2 2.7 4.4 2.7 1.9 0 4-2.1 4-2.1.5 1 3.2 2.1 4.8 2.1 2.6 0 4.7-3.2 6.6-6.8 0 0 .5-.8.5-1.2-.3-.5-1-1-1.5-1zM405.1 75.6c-.3.4-.8.7-1.2.7-.2 0-.6-.3-.6-.5 0-.6.5-1.4 2.9-3-.5 1.6-.9 2.5-1.1 2.8zm3.5-12.7c-1 2-2 2.7-2.6 2.7-.4 0-.7-.4-.7-.8 0-3.1 2.4-9.1 3.9-9.1.6 0 1.2.4 1.2.6 0 1-1.1 5.1-1.8 6.6zm16.7 0c-1 2.1-2.4 2.7-2.8 2.7-.3 0-.7-.4-.7-.8 0-3.1 2.9-9.1 4.1-9.1.6 0 1.3.4 1.3.9 0 1-1.2 4.8-1.9 6.3zm26.2 0c-1 2.1-2.4 2.7-2.8 2.7-.3 0-.7-.4-.7-.8 0-3.1 2.9-9.1 4.1-9.1.6 0 1.3.4 1.3.9 0 1-1.1 4.8-1.9 6.3zm35.2-.3c-.4 1.2-1.9 2.9-2.7 2.9-.2 0-.6-.4-.6-1.1 0-2.6 2.6-8.9 4-8.9.6 0 1.3.6 1.3.6-.6 2.4-1.2 4.2-2 6.5zm31 .3c-1 2.1-2.4 2.7-2.8 2.7-.3 0-.7-.4-.7-.8 0-3.1 2.9-9.1 4.1-9.1.6 0 1.3.4 1.3.9 0 1-1.2 4.8-1.9 6.3z" id="logo-galandra" transform="translate(-400 -45)"/></g></g></g></g></svg>