<svg width="69" height="31" viewBox="0 0 69 31" xmlns="http://www.w3.org/2000/svg" xmlns:xlink="http://www.w3.org/1999/xlink"><title>CDC Logo</title><defs><path id="path-1" d="M0 .019h68.912v30.168H0V.02z"/></defs><g id="Page-1" fill="none" fill-rule="evenodd"><g id="Desktop-HD"><g id="Group"><g id="CDC-Logo"><path d="M36.388 14.24c-.467.364-.904.585-1.309.665-.405.08-.837.12-1.295.12a4.225 4.225 0 0 1-1.56-.286 3.415 3.415 0 0 1-1.269-.872c-.36-.39-.647-.889-.858-1.496-.212-.608-.318-1.329-.318-2.162 0-.87.117-1.608.35-2.216.234-.607.542-1.104.926-1.49a3.565 3.565 0 0 1 1.289-.845 4.13 4.13 0 0 1 1.453-.266c.529 0 .96.03 1.295.087a6.97 6.97 0 0 1 1.164.326l-.569.878c-.422-.204-1.026-.306-1.81-.306a3.01 3.01 0 0 0-1.071.2c-.353.133-.668.35-.945.651-.278.302-.5.697-.668 1.185-.167.488-.25 1.086-.25 1.796 0 .638.079 1.197.237 1.676.16.48.377.878.655 1.198.277.319.603.558.977.718.375.16.783.24 1.223.24.397 0 .742-.04 1.038-.12a2.85 2.85 0 0 0 .746-.306l.569.625z" id="Fill-1" fill="#373435"/><path d="M36.388 25.078c-.467.363-.904.585-1.309.665-.405.08-.837.12-1.295.12a4.225 4.225 0 0 1-1.56-.286 3.415 3.415 0 0 1-1.269-.872c-.36-.39-.647-.89-.858-1.497-.212-.607-.318-1.328-.318-2.162 0-.869.117-1.607.35-2.215.234-.608.542-1.105.925-1.49a3.568 3.568 0 0 1 1.29-.845 4.13 4.13 0 0 1 1.453-.266c.529 0 .96.029 1.295.086a6.94 6.94 0 0 1 1.164.326l-.57.878c-.422-.204-1.025-.306-1.81-.306-.361 0-.718.067-1.07.2-.353.133-.668.35-.945.652-.278.302-.5.696-.668 1.184-.167.488-.25 1.087-.25 1.796 0 .639.078 1.197.237 1.676.159.48.377.879.655 1.198.277.32.603.559.977.718.375.16.782.24 1.223.24.397 0 .742-.04 1.038-.12.295-.08.544-.182.746-.306l.569.626z" id="Fill-3" fill="#373435"/><path d="M38.715 14.04c.246 0 .497-.033.753-.1.255-.066.454-.15.595-.252a1.602 1.602 0 0 0 .555-.699v-1.104a9.972 9.972 0 0 0-.754-.026c-.396 0-.797.015-1.202.046-.406.031-.694.162-.866.393-.172.23-.258.457-.258.678 0 .31.11.566.33.765.221.2.503.3.847.3zm-1.692-5.335a3.8 3.8 0 0 1 1.17-.452c.444-.097.91-.147 1.394-.147.458 0 .826.063 1.103.187.278.124.49.286.635.486.146.2.242.418.29.658.049.24.073.48.073.718 0 .533-.013 1.052-.04 1.557-.026.506-.039.985-.039 1.437 0 .328.06.645.179.952.118.305.31.57.574.791h-.938c-.273 0-.502-.31-.687-.931h-.066c-.08.124-.179.246-.298.365-.118.12-.262.227-.43.32a2.524 2.524 0 0 1-.673.233 3.948 3.948 0 0 1-.846.093 2.27 2.27 0 0 1-.787-.133 1.766 1.766 0 0 1-1.044-.971 1.932 1.932 0 0 1-.152-.785c0-.39.15-.794.45-1.211.3-.417.722-.659 1.268-.725.547-.067 1.124-.1 1.732-.1h.364c.118 0 .24.009.363.027.026-.266.04-.506.04-.719 0-.488-.098-.83-.291-1.024-.194-.196-.547-.293-1.058-.293-.15 0-.31.011-.482.033a6.012 6.012 0 0 0-.529.093 4.36 4.36 0 0 0-.516.147 2.588 2.588 0 0 0-.429.193l-.33-.799z" id="Fill-5" fill="#373435"/><path d="M46.01 13.056c0-.266-.079-.474-.237-.625a2.023 2.023 0 0 0-.588-.38c-.234-.101-.49-.2-.767-.292a3.588 3.588 0 0 1-.767-.36 1.981 1.981 0 0 1-.588-.565c-.158-.23-.238-.54-.238-.931 0-.639.18-1.107.542-1.404.361-.297.864-.446 1.507-.446.476 0 .874.043 1.196.127.322.084.601.184.84.299l-.252.878a4.114 4.114 0 0 0-.733-.259 3.601 3.601 0 0 0-.919-.113c-.388 0-.672.066-.852.2-.181.133-.271.363-.271.691 0 .231.079.41.238.539.158.129.354.244.588.346.233.102.489.202.766.3.278.097.533.225.767.385.233.16.43.361.588.605.159.244.238.566.238.965 0 .284-.046.55-.139.799-.092.248-.236.46-.43.638a2.092 2.092 0 0 1-.72.42 3.023 3.023 0 0 1-1.011.152c-.502 0-.93-.049-1.282-.146a4.022 4.022 0 0 1-.886-.346l.318-.905c.202.115.467.222.793.32.326.097.656.146.991.146.379 0 .692-.075.938-.226.247-.151.37-.422.37-.812" id="Fill-7" fill="#373435"/><path d="M49.81 14.04c.246 0 .497-.033.753-.1.256-.066.454-.15.595-.252a1.6 1.6 0 0 0 .555-.699v-1.104a10.002 10.002 0 0 0-.753-.026c-.397 0-.798.015-1.203.046s-.694.162-.866.393c-.172.23-.258.457-.258.678 0 .31.11.566.33.765.221.2.503.3.847.3zm-1.692-5.335a3.8 3.8 0 0 1 1.17-.452c.445-.097.91-.147 1.394-.147.459 0 .826.063 1.104.187.278.124.489.286.634.486.146.2.242.418.291.658.048.24.073.48.073.718 0 .533-.013 1.052-.04 1.557-.026.506-.04.985-.04 1.437 0 .328.06.645.179.952.119.305.31.57.575.791h-.939c-.273 0-.502-.31-.687-.931h-.066c-.08.124-.179.246-.297.365a1.89 1.89 0 0 1-.43.32 2.518 2.518 0 0 1-.674.233 3.948 3.948 0 0 1-.846.093 2.27 2.27 0 0 1-.786-.133 1.766 1.766 0 0 1-1.044-.971 1.937 1.937 0 0 1-.152-.785c0-.39.15-.794.449-1.211.3-.417.723-.659 1.269-.725.546-.067 1.123-.1 1.731-.1h.364c.119 0 .24.009.363.027a7.39 7.39 0 0 0 .04-.719c0-.488-.097-.83-.291-1.024-.194-.196-.547-.293-1.057-.293-.15 0-.311.011-.483.033a6.012 6.012 0 0 0-.528.093c-.181.04-.353.089-.516.147a2.59 2.59 0 0 0-.43.193l-.33-.799z" id="Fill-9" fill="#373435"/><path d="M59.802 14.094c.449 0 .806-.117 1.07-.353.264-.235.445-.592.542-1.07v-3.3a1.467 1.467 0 0 0-.542-.266 3.267 3.267 0 0 0-.806-.08c-.608 0-1.084.201-1.427.605-.344.404-.516 1.05-.516 1.936 0 .363.028.7.086 1.01.057.312.152.578.284.8.132.221.306.396.522.525.216.129.478.193.787.193zm2.67-1.517c0 .452.004.863.012 1.23.01.369.05.73.12 1.085h-.714l-.264-.944h-.053c-.177.31-.432.567-.767.77-.335.205-.727.307-1.176.307-.882 0-1.536-.28-1.963-.838-.427-.559-.64-1.432-.64-2.621 0-1.136.266-1.998.799-2.588.533-.59 1.266-.885 2.2-.885.326 0 .584.018.774.054.189.035.394.093.614.172V5.552h1.057v7.025z" id="Fill-11" fill="#373435"/><path d="M64.22 11.54c0 .336.033.66.099.97.066.311.17.582.31.812.141.23.326.417.555.559.23.142.506.213.833.213 1.198.009 1.797-.843 1.797-2.555 0-.346-.033-.674-.099-.984-.066-.31-.17-.581-.31-.812a1.622 1.622 0 0 0-.555-.552c-.23-.138-.507-.207-.833-.207-1.198-.008-1.798.844-1.798 2.555m-1.097 0c0-1.126.25-1.989.747-2.588.498-.598 1.214-.898 2.148-.898.493 0 .923.083 1.289.247.365.164.667.399.905.705.238.306.414.674.528 1.104.115.43.173.907.173 1.43 0 1.127-.25 1.99-.748 2.588-.497.599-1.213.898-2.147.898-.494 0-.923-.082-1.29-.246a2.335 2.335 0 0 1-.904-.705 3.053 3.053 0 0 1-.529-1.104 5.55 5.55 0 0 1-.172-1.43" id="Fill-13" fill="#373435"/><path d="M41.159 16.483l-1.612 1.903h-.82l1.15-1.903h1.282zm-3.674 6.014c0 1.41.793 2.474 1.93 2.474 1.11 0 1.942-1.051 1.942-2.501 0-1.09-.542-2.461-1.916-2.461-1.362 0-1.956 1.277-1.956 2.488zm5.062-.067c0 2.382-1.652 3.42-3.185 3.42-1.718 0-3.066-1.278-3.066-3.314 0-2.141 1.414-3.405 3.171-3.405 1.837 0 3.08 1.343 3.08 3.3z" id="Fill-16" fill="#373435"/><path d="M47.78 21.885c0-.147-.013-.346-.052-.493-.172-.731-.807-1.343-1.679-1.343-1.203 0-1.916 1.064-1.916 2.474 0 1.304.647 2.382 1.89 2.382.78 0 1.493-.532 1.705-1.397.04-.16.053-.32.053-.506v-1.117zm1.15-5.628v7.783c0 .572.027 1.224.053 1.663h-1.03l-.054-1.118h-.04c-.343.719-1.11 1.264-2.153 1.264-1.547 0-2.75-1.317-2.75-3.273-.013-2.141 1.322-3.445 2.868-3.445.991 0 1.64.465 1.93.97h.027v-3.844h1.149z" id="Fill-18" fill="#373435"/><path d="M57.113 21.805c0-.2-.013-.373-.066-.519-.212-.692-.767-1.25-1.626-1.25-1.11 0-1.903.944-1.903 2.434 0 1.264.648 2.315 1.89 2.315.727 0 1.374-.452 1.612-1.197.067-.2.093-.426.093-.626v-1.157zm1.163 2.954c0 1.49-.304 2.38-.912 2.953-.634.572-1.533.771-2.34.771-.766 0-1.611-.186-2.127-.532l.29-.905c.424.28 1.085.519 1.878.519 1.189 0 2.061-.625 2.061-2.261v-.705H57.1c-.344.598-1.044 1.077-2.035 1.077-1.586 0-2.723-1.357-2.723-3.14 0-2.181 1.414-3.405 2.894-3.405 1.11 0 1.705.572 1.996 1.104h.026l.04-.971h1.03c-.039.452-.052.985-.052 1.756v3.739z" id="Fill-20" fill="#373435"/><path d="M60.197 22.497c0 1.41.793 2.474 1.93 2.474 1.11 0 1.943-1.051 1.943-2.501 0-1.09-.542-2.461-1.917-2.461-1.36 0-1.956 1.277-1.956 2.488m5.062-.067c0 2.381-1.652 3.42-3.185 3.42-1.718 0-3.066-1.278-3.066-3.314 0-2.141 1.414-3.405 3.172-3.405 1.837 0 3.079 1.344 3.079 3.3" id="Fill-22" fill="#373435"/><mask id="mask-2" fill="#fff"><use xlink:href="#path-1"/></mask><path d="M50.085 19.264h1.163v6.439h-1.163v-6.44zm1.295-1.81c0 .4-.277.719-.74.719-.423 0-.7-.32-.7-.718 0-.4.29-.732.727-.732.422 0 .713.32.713.732z" id="Fill-24" fill="#373435" mask="url(#mask-2)"/><path d="M23.263 10.902V5.267v.151H5.288v19.37h17.975v.202-5.635H10.656v-8.453h12.607z" id="Fill-26" fill="#FFCE2B" mask="url(#mask-2)"/><path d="M10.786 24.787H5.288V5.418h17.975V.02H5.288L0 5.419v19.368l5.288 5.4h17.975v-5.4H10.786z" id="Fill-27" fill="#F58635" mask="url(#mask-2)"/></g></g></g></g></svg>